<svg width="888" height="147" viewBox="0 0 888 147" fill="none" xmlns="http://www.w3.org/2000/svg">
<path d="M799.017 24.55V121.541H821.56V63.4058L866.941 121.541H888V24.55H865.458V80.6091L821.56 24.55H799.017Z" fill="#078E3E"/>
<path d="M786.263 24.55H762.238V121.244H786.263V24.55Z" fill="#078E3E"/>
<path d="M674.442 24.55H648.637L687.789 121.541H715.077L754.823 24.55H729.908L702.026 96.3293L674.442 24.55Z" fill="#078E3E"/>
<path d="M309.91 25.1433H288.554V121.541H362.41V102.855H309.91V25.1433Z" fill="#202020"/>
<path d="M392.664 81.4989H428.257V64.2956H392.664V43.2364H446.35V25.1433H371.011V121.541H446.943V103.448H392.664V81.4989Z" fill="#202020"/>
<path d="M494.104 25.1433L454.655 121.541H476.901L486.096 97.5158H526.731L535.926 121.541H559.061L520.206 25.1433H494.104ZM492.028 80.9057L506.265 43.533L520.206 80.9057H492.028Z" fill="#202020"/>
<path d="M629.951 82.6854L631.434 82.0922C636.773 79.7193 641.222 76.16 644.188 71.4142C647.45 66.6685 648.934 61.3296 648.934 55.3974C648.934 49.4652 647.45 44.4229 644.484 39.9738C641.815 35.5246 637.662 31.6687 632.62 29.2959C627.578 26.6264 621.646 25.4399 615.12 25.4399H565.883V121.541V121.838H587.239V85.6515H608.298L626.985 121.838H650.713L629.951 82.6854ZM623.129 64.8889C620.756 67.2617 617.196 68.4482 613.044 68.4482H587.536V42.9398H613.044C617.196 42.9398 620.459 44.1263 623.129 46.4991C625.798 48.872 627.281 51.8381 627.281 55.694C627.281 59.5499 625.798 62.516 623.129 64.8889Z" fill="#202020"/>
<path d="M255.75 101.214C251.647 103.27 246.666 104.445 242.271 104.445C238.168 104.445 234.066 103.564 230.257 102.095C226.74 100.626 223.517 98.276 220.88 95.3382C218.243 92.6943 215.899 89.169 214.434 85.6437C212.968 81.8246 212.089 77.418 212.089 73.0114C212.089 68.3111 212.968 64.492 214.434 60.3792C215.899 56.8539 217.95 53.3286 220.587 50.6847C223.224 48.0407 226.154 45.6905 229.964 43.9279C233.773 42.459 237.582 41.5777 241.685 41.5777C246.08 41.5777 250.768 42.7528 254.871 44.8092L268.056 31.0019C266.591 30.1206 265.126 28.9455 263.075 28.3579C256.336 25.1264 249.303 23.3638 241.685 23.3638C234.945 23.3638 228.499 24.5388 222.638 27.1828C216.485 29.8268 211.503 33.0583 207.108 37.7586C202.713 42.1652 199.196 47.4532 196.559 53.3286C193.922 59.2041 192.75 65.9609 192.75 73.0114C192.75 80.062 193.922 86.2312 196.559 92.6942C198.903 98.5697 202.713 104.151 207.108 108.264C211.503 112.671 216.485 116.196 222.638 118.84C228.792 121.484 234.945 122.659 242.271 122.659C249.303 122.659 256.629 121.19 263.368 117.959C270.108 114.727 275.675 110.614 280.363 105.033L268.056 92.1067C263.661 96.2195 259.852 98.8635 255.75 101.214Z" fill="#202020"/>
<path d="M73.1704 146.023C113.573 146.023 146.023 113.183 146.023 73.0113C146.023 32.8391 113.255 0 73.1704 0C33.0857 0 0 32.5203 0 73.0113C0 113.502 32.7676 146.023 73.1704 146.023Z" fill="#078E3E"/>
<path d="M87.6868 98.8967C83.5156 100.982 78.823 102.025 74.1305 102.025C69.6986 102.025 65.7881 101.243 62.1383 99.6788C58.4885 98.1146 55.3602 96.029 52.7532 93.422C50.1462 90.815 47.7999 87.4259 46.4964 84.0369C44.9322 80.1264 44.1501 76.2159 44.1501 72.0447C44.1501 67.6129 44.9322 63.7024 46.4964 60.0526C47.7999 56.4028 49.8855 53.2744 52.7532 50.4068C55.3602 47.5391 58.4885 45.4535 62.1383 44.15C65.7881 42.5858 69.9593 41.8037 73.8698 41.8037C78.5623 41.8037 82.7335 42.8465 86.9047 44.6714L100.2 31.3758C98.6361 30.5937 97.0719 29.5509 95.247 29.0295C88.2082 25.9011 81.1693 24.3369 73.6091 24.3369C66.8309 24.3369 60.3134 25.6404 54.3174 27.9867C48.3213 30.333 43.1073 33.7221 38.6755 38.1539C34.2436 42.3251 30.8545 47.5391 28.2475 53.5351C25.6405 59.2705 24.337 65.788 24.337 72.3054C24.337 79.0836 25.6405 85.3404 27.9868 91.0757C30.3331 96.8111 33.9829 102.025 38.4148 106.196C42.8466 110.367 48.0606 113.756 54.0567 116.363C60.0527 118.71 66.5702 120.013 73.6091 120.013C80.9086 120.013 87.9475 118.449 94.7256 115.321C101.504 112.192 107.239 108.021 111.671 102.807L99.1575 90.2936C95.7684 93.9434 91.858 96.8111 87.6868 98.8967Z" fill="white"/>
<path fill-rule="evenodd" clip-rule="evenodd" d="M108.044 39.302C109.599 40.8573 110.833 42.7037 111.675 44.7358C112.516 46.768 112.95 48.946 112.95 51.1456C112.95 53.3451 112.516 55.5232 111.675 57.5553C110.833 59.5874 109.599 61.4339 108.044 62.9891L80.9495 90.0799L59.1147 68.2451L70.9618 56.4015L80.9495 66.3892L108.044 39.302Z" fill="#96FFAD"/>
<mask id="mask0_147_1272" style="mask-type:alpha" maskUnits="userSpaceOnUse" x="59" y="39" width="54" height="52">
<path fill-rule="evenodd" clip-rule="evenodd" d="M108.012 39.3477C111.156 42.4904 112.924 46.7528 112.927 51.1982C112.93 55.6436 111.169 59.9086 108.03 63.056L80.9494 90.2105L59.1146 68.3757L70.9617 56.5322L80.9494 66.5234L108.015 39.3512L108.012 39.3477Z" fill="white"/>
</mask>
<g mask="url(#mask0_147_1272)">
</g>
</svg>
